<svg version="1.1" xmlns="http://www.w3.org/2000/svg" xmlns:xlink="http://www.w3.org/1999/xlink" width="41.43917" height="54.84987" viewBox="0,0,41.43917,54.84987"><defs><linearGradient x1="239.9018" y1="173.3593" x2="239.9018" y2="190.24587" gradientUnits="userSpaceOnUse" id="color-1"><stop offset="0" stop-color="#3aff61"/><stop offset="1" stop-color="#9bff00"/></linearGradient></defs><g transform="translate(-219.28041,-152.57507)"><g data-paper-data="{&quot;isPaintingLayer&quot;:true}" fill-rule="nonzero" stroke="none" stroke-linecap="butt" stroke-linejoin="miter" stroke-miterlimit="10" stroke-dasharray="" stroke-dashoffset="0" style="mix-blend-mode: normal"><path d="M239.42592,175.92239l-0.16386,-9.66788c0,0 -0.10664,-0.80965 0.2728,-1.06403c0.37944,-0.25438 6.22912,2.9281 6.23385,3.73213c0.00468,0.797 -5.49604,3.30608 -5.49604,3.30608l0.04575,3.69369z" data-paper-data="{&quot;guideItem&quot;:null,&quot;selected&quot;:false}" fill="#3aff61" stroke-width="1"/><path d="M247.51314,190.24587h-15.22267c-0.56245,0 -1.02264,-0.65691 -1.02264,-1.47276v-7.54394c0,-0.80525 8.56461,-7.86987 8.56461,-7.86987c0,0 8.70334,7.05402 8.70334,7.86987v7.54394c0,0.81585 -0.46019,1.47276 -1.02264,1.47276z" data-paper-data="{&quot;guideItem&quot;:null,&quot;selected&quot;:false}" fill="url(#color-1)" stroke-width="1"/><path d="M219.28278,173.29348c-0.17395,-11.44114 9.27594,-20.7184 20.7184,-20.7184c11.44246,0 20.71841,9.27594 20.71841,20.7184c0,15.99332 -20.95793,34.13147 -20.95793,34.13147c0,0 -20.23936,-18.37767 -20.47888,-34.13147zM239.96683,189.4596c8.48691,-0.21263 13.75,-7.49957 13.75,-15.09349c0,-7.59392 -4.36221,-14.6007 -13.75,-14.64565c-8.93524,-0.04279 -13.75,7.05173 -13.75,14.64565c0,7.59392 4.8126,15.3174 13.75,15.09349z" fill="#3aff61" stroke-width="0"/></g></g></svg>